<?xml version="1.0" encoding="UTF-8"?>
<!DOCTYPE svg PUBLIC "-//W3C//DTD SVG 1.1//EN" "http://www.w3.org/Graphics/SVG/1.1/DTD/svg11.dtd">
<svg xmlns="http://www.w3.org/2000/svg">
<symbol id="arrow-bottom" viewBox="0 0 14.06 8.094">
	<path fill="#fff" fill-rule="evenodd" d="M6.33 6.019L11.99.358a1.2 1.2 0 011.69 1.7l-5.66 5.66a1.2 1.2 0 01-1.69-1.699zm1.35 0L2.02.358a1.2 1.2 0 00-1.69 1.7l5.66 5.66a1.2 1.2 0 001.69-1.699z" data-name="Rounded Rectangle 4 copy 13"/>
</symbol>
<symbol id="arrow-down" viewBox="0 0 23.41 13.41">
	<path fill="#172427" fill-rule="evenodd" d="M10.56 9.99L19.99.56a2.001 2.001 0 112.83 2.83l-9.43 9.43a2.001 2.001 0 11-2.83-2.83zm2.26 0L3.39.56A2.001 2.001 0 10.56 3.39l9.43 9.43a2.001 2.001 0 102.83-2.83z" data-name="Rounded Rectangle 4 copy 15"/>
</symbol>
<symbol id="arrow-top" viewBox="0 0 23.41 13.406">
	<path fill="#172427" fill-rule="evenodd" d="M10.56 3.387l9.43 9.435a2 2 0 102.83-2.828L13.39.559a2 2 0 10-2.83 2.828zm2.26 0l-9.43 9.435A2 2 0 11.56 9.994L9.99.559a2 2 0 112.83 2.828z" data-name="Rounded Rectangle 4 copy 12"/>
</symbol>
<symbol id="arrow-top2" viewBox="0 0 14.06 8.094">
	<path fill="#fff" fill-rule="evenodd" d="M6.33 2.043l5.66 5.66a1.2 1.2 0 001.69-1.7L8.02.343a1.2 1.2 0 10-1.69 1.7zm1.35 0l-5.66 5.66a1.2 1.2 0 01-1.69-1.7L5.99.343a1.2 1.2 0 011.69 1.7z" data-name="Rounded Rectangle 4 copy 14"/>
</symbol>
<symbol id="burger-white" viewBox="0 0 23 20">
	<path fill="#fff" fill-rule="evenodd" d="M2 0h19a2 2 0 010 4H2a2 2 0 010-4zm0 8h19a2 2 0 010 4H2a2 2 0 010-4zm0 8h19a2 2 0 110 4H2a2 2 0 110-4z" data-name="Rounded Rectangle 4 copy 7"/>
</symbol>
<symbol id="burger" viewBox="0 0 23 20">
	<path fill="#172427" fill-rule="evenodd" d="M2 0h19a2 2 0 010 4H2a2 2 0 010-4zm0 8h19a2 2 0 010 4H2a2 2 0 010-4zm0 8h19a2 2 0 110 4H2a2 2 0 110-4z" data-name="Rounded Rectangle 4 copy 7"/>
</symbol>
<symbol id="france" viewBox="0 0 512 512">
	<circle cx="256" cy="256" r="256" fill="#f0f0f0"/>
	<path fill="#d80027" d="M512 256c0-110.071-69.472-203.906-166.957-240.077v480.155C442.528 459.906 512 366.071 512 256z"/>
	<path fill="#0052b4" d="M0 256c0 110.071 69.473 203.906 166.957 240.077V15.923C69.473 52.094 0 145.929 0 256z"/>
</symbol>
<symbol id="icon-play" viewBox="0 0 54 54">
	<path fill="#fff" fill-rule="evenodd" d="M27 0A27 27 0 110 27 27 27 0 0127 0zm-6.38 34.972V18.05a1.054 1.054 0 011.62-.912c.64.368 13.51 7.807 14.61 8.444a1.055 1.055 0 010 1.833c-.8.466-13.71 7.943-14.64 8.463a1.051 1.051 0 01-1.59-.907z" data-name="Ellipse 4 copy 2"/>
</symbol>
<symbol id="united-kingdom" viewBox="0 0 512 512">
	<circle cx="256" cy="256" r="256" fill="#f0f0f0"/>
	<g fill="#0052b4">
		<path d="M52.92 100.142c-20.109 26.163-35.272 56.318-44.101 89.077h133.178L52.92 100.142zM503.181 189.219c-8.829-32.758-23.993-62.913-44.101-89.076l-89.075 89.076h133.176zM8.819 322.784c8.83 32.758 23.993 62.913 44.101 89.075l89.074-89.075H8.819zM411.858 52.921c-26.163-20.109-56.317-35.272-89.076-44.102v133.177l89.076-89.075zM100.142 459.079c26.163 20.109 56.318 35.272 89.076 44.102V370.005l-89.076 89.074zM189.217 8.819c-32.758 8.83-62.913 23.993-89.075 44.101l89.075 89.075V8.819zM322.783 503.181c32.758-8.83 62.913-23.993 89.075-44.101l-89.075-89.075v133.176zM370.005 322.784l89.075 89.076c20.108-26.162 35.272-56.318 44.101-89.076H370.005z"/>
	</g>
	<g fill="#d80027">
		<path d="M509.833 222.609H289.392V2.167A258.556 258.556 0 00256 0c-11.319 0-22.461.744-33.391 2.167v220.441H2.167A258.556 258.556 0 000 256c0 11.319.744 22.461 2.167 33.391h220.441v220.442a258.35 258.35 0 0066.783 0V289.392h220.442A258.533 258.533 0 00512 256c0-11.317-.744-22.461-2.167-33.391z"/>
		<path d="M322.783 322.784L437.019 437.02a256.636 256.636 0 0015.048-16.435l-97.802-97.802h-31.482v.001zM189.217 322.784h-.002L74.98 437.019a256.636 256.636 0 0016.435 15.048l97.802-97.804v-31.479zM189.217 189.219v-.002L74.981 74.98a256.636 256.636 0 00-15.048 16.435l97.803 97.803h31.481zM322.783 189.219L437.02 74.981a256.328 256.328 0 00-16.435-15.047l-97.802 97.803v31.482z"/>
	</g>
</symbol>
</svg>